<svg width="24" height="25" viewBox="0 0 24 25" fill="none" xmlns="http://www.w3.org/2000/svg">
    <path d="M10.03 9.47015C9.88786 9.33767 9.69981 9.26555 9.50551 9.26898C9.31121 9.27241 9.12582 9.35112 8.98841 9.48853C8.851 9.62595 8.77228 9.81133 8.76886 10.0056C8.76543 10.1999 8.83755 10.388 8.97003 10.5302L10.94 12.5002L8.97003 14.4702C8.89635 14.5388 8.83724 14.6216 8.79625 14.7136C8.75526 14.8056 8.73322 14.9049 8.73144 15.0056C8.72966 15.1063 8.74819 15.2064 8.78591 15.2998C8.82363 15.3931 8.87978 15.478 8.95099 15.5492C9.02221 15.6204 9.10705 15.6766 9.20043 15.7143C9.29382 15.752 9.39385 15.7705 9.49455 15.7687C9.59526 15.767 9.69457 15.7449 9.78657 15.7039C9.87857 15.6629 9.96137 15.6038 10.03 15.5302L12 13.5602L13.97 15.5302C14.1122 15.6626 14.3003 15.7348 14.4946 15.7313C14.6889 15.7279 14.8742 15.6492 15.0117 15.5118C15.1491 15.3744 15.2278 15.189 15.2312 14.9947C15.2346 14.8004 15.1625 14.6123 15.03 14.4702L13.06 12.5002L15.03 10.5302C15.1037 10.4615 15.1628 10.3787 15.2038 10.2867C15.2448 10.1947 15.2668 10.0954 15.2686 9.99468C15.2704 9.89397 15.2519 9.79394 15.2142 9.70056C15.1764 9.60717 15.1203 9.52233 15.0491 9.45112C14.9779 9.3799 14.893 9.32375 14.7996 9.28603C14.7062 9.24831 14.6062 9.22979 14.5055 9.23156C14.4048 9.23334 14.3055 9.25538 14.2135 9.29637C14.1215 9.33736 14.0387 9.39647 13.97 9.47015L12 11.4402L10.03 9.47015Z" fill="black"/>
    <path fill-rule="evenodd" clip-rule="evenodd" d="M12 1.75C6.063 1.75 1.25 6.563 1.25 12.5C1.25 18.437 6.063 23.25 12 23.25C17.937 23.25 22.75 18.437 22.75 12.5C22.75 6.563 17.937 1.75 12 1.75ZM2.75 12.5C2.75 10.0467 3.72455 7.69397 5.45926 5.95926C7.19397 4.22455 9.54675 3.25 12 3.25C14.4533 3.25 16.806 4.22455 18.5407 5.95926C20.2754 7.69397 21.25 10.0467 21.25 12.5C21.25 14.9533 20.2754 17.306 18.5407 19.0407C16.806 20.7754 14.4533 21.75 12 21.75C9.54675 21.75 7.19397 20.7754 5.45926 19.0407C3.72455 17.306 2.75 14.9533 2.75 12.5Z" fill="black"/>
</svg>
