<svg width="20" height="20" viewBox="0 0 20 20" fill="none" xmlns="http://www.w3.org/2000/svg">
<path d="M13.3332 6.66667V4.16667H6.6665V6.66667H4.99984V2.5H14.9998V6.66667H13.3332ZM14.9998 10.4167C15.2359 10.4167 15.434 10.3367 15.594 10.1767C15.754 10.0167 15.8337 9.81889 15.8332 9.58333C15.8326 9.34778 15.7526 9.15 15.5932 8.99C15.4337 8.83 15.2359 8.75 14.9998 8.75C14.7637 8.75 14.5659 8.83 14.4065 8.99C14.2471 9.15 14.1671 9.34778 14.1665 9.58333C14.1659 9.81889 14.2459 10.0169 14.4065 10.1775C14.5671 10.3381 14.7648 10.4178 14.9998 10.4167ZM13.3332 15.8333V12.5H6.6665V15.8333H13.3332ZM14.9998 17.5H4.99984V14.1667H1.6665V9.16667C1.6665 8.45833 1.90956 7.86472 2.39567 7.38583C2.88178 6.90694 3.47206 6.66722 4.1665 6.66667H15.8332C16.5415 6.66667 17.1354 6.90639 17.6148 7.38583C18.0943 7.86528 18.3337 8.45889 18.3332 9.16667V14.1667H14.9998V17.5ZM16.6665 12.5V9.16667C16.6665 8.93056 16.5865 8.73278 16.4265 8.57333C16.2665 8.41389 16.0687 8.33389 15.8332 8.33333H4.1665C3.93039 8.33333 3.73261 8.41333 3.57317 8.57333C3.41373 8.73333 3.33373 8.93111 3.33317 9.16667V12.5H4.99984V10.8333H14.9998V12.5H16.6665Z" fill="#101828"/>
</svg>
