<svg width="25" height="24" viewBox="0 0 25 24" fill="none" xmlns="http://www.w3.org/2000/svg">
<path d="M12.5 17C12.7833 17 13.021 16.904 13.213 16.712C13.405 16.52 13.5007 16.2827 13.5 16C13.4993 15.7173 13.4033 15.48 13.212 15.288C13.0207 15.096 12.7833 15 12.5 15C12.2167 15 11.9793 15.096 11.788 15.288C11.5967 15.48 11.5007 15.7173 11.5 16C11.4993 16.2827 11.5953 16.5203 11.788 16.713C11.9807 16.9057 12.218 17.0013 12.5 17ZM11.5 13H13.5V7H11.5V13ZM8.75 21L3.5 15.75V8.25L8.75 3H16.25L21.5 8.25V15.75L16.25 21H8.75ZM9.6 19H15.4L19.5 14.9V9.1L15.4 5H9.6L5.5 9.1V14.9L9.6 19Z" fill="#101828"/>
</svg>
