<svg width="16" height="16" viewBox="0 0 16 16" fill="none" xmlns="http://www.w3.org/2000/svg">
<path d="M2.1835 10.1977C1.61683 9.46166 1.3335 9.09299 1.3335 8.00033C1.3335 6.90699 1.61683 6.53966 2.1835 5.80299C3.31483 4.33366 5.21216 2.66699 8.00016 2.66699C10.7882 2.66699 12.6855 4.33366 13.8168 5.80299C14.3835 6.54033 14.6668 6.90766 14.6668 8.00033C14.6668 9.09366 14.3835 9.46099 13.8168 10.1977C12.6855 11.667 10.7882 13.3337 8.00016 13.3337C5.21216 13.3337 3.31483 11.667 2.1835 10.1977Z" stroke="#101828" stroke-width="1.5"/>
<path d="M10 8C10 8.53043 9.78929 9.03914 9.41421 9.41421C9.03914 9.78929 8.53043 10 8 10C7.46957 10 6.96086 9.78929 6.58579 9.41421C6.21071 9.03914 6 8.53043 6 8C6 7.46957 6.21071 6.96086 6.58579 6.58579C6.96086 6.21071 7.46957 6 8 6C8.53043 6 9.03914 6.21071 9.41421 6.58579C9.78929 6.96086 10 7.46957 10 8Z" stroke="#101828" stroke-width="1.5"/>
</svg>
