<svg width="24" height="24" viewBox="0 0 24 24" fill="none" xmlns="http://www.w3.org/2000/svg">
<path fill-rule="evenodd" clip-rule="evenodd" d="M2.02783 11.25C2.21701 8.73474 3.34972 6.38388 5.19899 4.6685C7.04826 2.95313 9.47747 1.99996 11.9998 2C11.1698 2 10.4298 2.364 9.81983 2.921C9.21483 3.475 8.70383 4.249 8.28983 5.163C7.87383 6.083 7.54983 7.159 7.33083 8.326C7.15321 9.29154 7.04692 10.2688 7.01283 11.25H2.02783ZM2.02783 12.75H7.01283C7.04883 13.752 7.15583 14.738 7.33083 15.674C7.55083 16.841 7.87383 17.917 8.28983 18.837C8.70383 19.751 9.21483 20.525 9.81983 21.079C10.4298 21.636 11.1698 22 11.9998 22C6.72983 22 2.41083 17.923 2.02783 12.75Z" fill="#101828"/>
<path d="M11.9998 3.39453C11.7248 3.39453 11.3698 3.51153 10.9568 3.88953C10.5408 4.27053 10.1238 4.86753 9.75577 5.68053C9.38977 6.48853 9.09277 7.46353 8.88877 8.55353C8.72877 9.41153 8.62877 10.3215 8.59277 11.2495H15.4068C15.3742 10.3448 15.2753 9.44375 15.1108 8.55353C14.9068 7.46353 14.6108 6.48853 14.2438 5.68053C13.8758 4.86753 13.4598 4.27053 13.0438 3.89053C12.6298 3.51153 12.2748 3.39453 11.9998 3.39453ZM8.88877 15.4455C9.09277 16.5355 9.38977 17.5105 9.75577 18.3185C10.1238 19.1315 10.5408 19.7285 10.9558 20.1085C11.3698 20.4875 11.7258 20.6045 11.9998 20.6045C12.2748 20.6045 12.6298 20.4875 13.0428 20.1095C13.4598 19.7285 13.8758 19.1315 14.2438 18.3185C14.6098 17.5105 14.9068 16.5355 15.1108 15.4455C15.2718 14.5875 15.3718 13.6775 15.4068 12.7495H8.59277C8.62777 13.6775 8.72777 14.5875 8.88877 15.4455Z" fill="#101828"/>
<path d="M12 2C12.831 2 13.57 2.364 14.18 2.921C14.785 3.475 15.297 4.249 15.71 5.163C16.127 6.083 16.45 7.159 16.669 8.326C16.844 9.262 16.951 10.248 16.987 11.25H21.972C21.7828 8.73474 20.6501 6.38388 18.8008 4.6685C16.9516 2.95313 14.5224 1.99996 12 2ZM16.669 15.674C16.45 16.841 16.127 17.917 15.71 18.837C15.297 19.751 14.785 20.525 14.18 21.079C13.57 21.636 12.831 22 12 22C17.27 22 21.589 17.923 21.972 12.75H16.987C16.9529 13.7312 16.8466 14.7085 16.669 15.674Z" fill="#101828"/>
</svg>
