<svg width="40" height="41" viewBox="0 0 40 41" fill="none" xmlns="http://www.w3.org/2000/svg">
<g clip-path="url(#clip0_253_834)">
<path d="M1.157 20.2608C1.15607 23.6216 2.03421 26.9031 3.70398 29.7955L0.997314 39.678L11.1108 37.0262C13.9081 38.549 17.0422 39.3469 20.2271 39.3472H20.2355C30.7494 39.3472 39.308 30.7917 39.3125 20.2759C39.3145 15.1802 37.3319 10.3886 33.7297 6.78361C30.1282 3.17896 25.3382 1.19276 20.2347 1.19043C9.71949 1.19043 1.1615 9.74547 1.15716 20.2608" fill="url(#paint0_linear_253_834)"/>
<path d="M0.47595 20.2544C0.474865 23.7361 1.38448 27.135 3.11378 30.131L0.310059 40.3678L10.7862 37.6209C13.6727 39.1947 16.9226 40.0245 20.2296 40.0257H20.2381C31.1293 40.0257 39.9953 31.1625 40 20.2702C40.0018 14.9915 37.9479 10.0276 34.217 6.29349C30.4857 2.55984 25.5245 0.502171 20.2381 0.5C9.3451 0.5 0.480291 9.36202 0.47595 20.2544ZM6.71486 29.615L6.3237 28.9941C4.67936 26.3795 3.81145 23.3581 3.81269 20.2557C3.8161 11.2022 11.1842 3.83643 20.2443 3.83643C24.6319 3.83829 28.7553 5.54868 31.8567 8.65194C34.958 11.7555 36.6645 15.8811 36.6634 20.269C36.6594 29.3225 29.2911 36.6891 20.2381 36.6891H20.2316C17.2839 36.6876 14.3928 35.896 11.8716 34.4L11.2716 34.0442L5.05486 35.6741L6.71486 29.615Z" fill="url(#paint1_linear_253_834)"/>
<path d="M15.2989 11.9955C14.9289 11.1734 14.5396 11.1568 14.1879 11.1423C13.8998 11.1299 13.5705 11.1309 13.2415 11.1309C12.9122 11.1309 12.3772 11.2548 11.9249 11.7485C11.4722 12.2428 10.1965 13.4372 10.1965 15.8665C10.1965 18.2958 11.966 20.6437 12.2127 20.9735C12.4596 21.3027 15.6286 26.4475 20.6475 28.4267C24.8187 30.0715 25.6675 29.7444 26.5728 29.6619C27.4782 29.5797 29.4944 28.4678 29.9057 27.3148C30.3173 26.1619 30.3173 25.1737 30.1939 24.9672C30.0705 24.7614 29.7412 24.6379 29.2474 24.391C28.7536 24.1442 26.3258 22.9495 25.8733 22.7847C25.4206 22.62 25.0914 22.5379 24.7621 23.0323C24.4328 23.5259 23.4872 24.6379 23.199 24.9672C22.9111 25.2972 22.6229 25.3383 22.1292 25.0913C21.6351 24.8436 20.0449 24.3228 18.1582 22.6408C16.6903 21.332 15.6993 19.7157 15.4113 19.2213C15.1232 18.7276 15.3804 18.46 15.628 18.214C15.8499 17.9927 16.122 17.6374 16.3691 17.3492C16.6153 17.0608 16.6975 16.8551 16.8621 16.5258C17.0269 16.1961 16.9444 15.9078 16.8212 15.6608C16.6975 15.4138 15.7379 12.9718 15.2989 11.9955Z" fill="white"/>
</g>
<defs>
<linearGradient id="paint0_linear_253_834" x1="1916.76" y1="3849.95" x2="1916.76" y2="1.19043" gradientUnits="userSpaceOnUse">
<stop stop-color="#1FAF38"/>
<stop offset="1" stop-color="#60D669"/>
</linearGradient>
<linearGradient id="paint1_linear_253_834" x1="1984.81" y1="3987.28" x2="1984.81" y2="0.5" gradientUnits="userSpaceOnUse">
<stop stop-color="#F9F9F9"/>
<stop offset="1" stop-color="white"/>
</linearGradient>
<clipPath id="clip0_253_834">
<rect width="39.6899" height="40" fill="white" transform="translate(0.310059 0.5)"/>
</clipPath>
</defs>
</svg>
