<svg width="16" height="17" viewBox="0 0 16 17" fill="none" xmlns="http://www.w3.org/2000/svg">
<path fill-rule="evenodd" clip-rule="evenodd" d="M10 1.33301H7.296C6.07067 1.33301 5.1 1.33301 4.34067 1.43501C3.55933 1.54034 2.92667 1.76167 2.42733 2.26034C1.92867 2.75967 1.70733 3.39234 1.602 4.17367C1.5 4.93367 1.5 5.90367 1.5 7.12901V11.1663C1.49988 11.762 1.71244 12.3381 2.0994 12.7909C2.48636 13.2438 3.02228 13.5436 3.61067 13.6363C3.702 14.1457 3.87867 14.5803 4.232 14.9343C4.63333 15.3357 5.13867 15.5077 5.73867 15.589C6.31667 15.6663 7.052 15.6663 7.96333 15.6663H10.0367C10.948 15.6663 11.6833 15.6663 12.2613 15.589C12.8613 15.5077 13.3667 15.3357 13.768 14.9343C14.1693 14.533 14.3413 14.0277 14.4227 13.4277C14.5 12.8497 14.5 12.1143 14.5 11.203V7.79634C14.5 6.88501 14.5 6.14967 14.4227 5.57167C14.3413 4.97167 14.1693 4.46634 13.768 4.06501C13.414 3.71167 12.9793 3.53501 12.47 3.44367C12.3772 2.85529 12.0774 2.31936 11.6246 1.93241C11.1718 1.54545 10.5956 1.33289 10 1.33301ZM11.42 3.34701C11.3186 3.05101 11.1272 2.79411 10.8726 2.61229C10.618 2.43047 10.3129 2.33282 10 2.33301H7.33333C6.062 2.33301 5.15933 2.33434 4.47333 2.42634C3.80333 2.51634 3.41667 2.68567 3.13467 2.96767C2.85267 3.24967 2.68333 3.63634 2.59333 4.30634C2.50133 4.99234 2.5 5.89501 2.5 7.16634V11.1663C2.49981 11.4792 2.59746 11.7843 2.77928 12.0389C2.96111 12.2936 3.218 12.485 3.514 12.5863C3.5 12.1797 3.5 11.7197 3.5 11.203V7.79634C3.5 6.88501 3.5 6.14967 3.578 5.57167C3.658 4.97167 3.83133 4.46634 4.232 4.06501C4.63333 3.66367 5.13867 3.49167 5.73867 3.41101C6.31667 3.33301 7.052 3.33301 7.96333 3.33301H10.0367C10.5533 3.33301 11.0133 3.33301 11.42 3.34701ZM4.93867 4.77301C5.12333 4.58834 5.382 4.46834 5.872 4.40234C6.37467 4.33501 7.04267 4.33367 7.99933 4.33367H9.99933C10.956 4.33367 11.6233 4.33501 12.1273 4.40234C12.6167 4.46834 12.8753 4.58901 13.06 4.77301C13.2447 4.95767 13.3647 5.21634 13.4307 5.70634C13.498 6.20901 13.4993 6.87701 13.4993 7.83367V11.167C13.4993 12.1237 13.498 12.791 13.4307 13.295C13.3647 13.7843 13.244 14.043 13.06 14.2277C12.8753 14.4123 12.6167 14.5323 12.1267 14.5983C11.6233 14.6657 10.956 14.667 9.99933 14.667H7.99933C7.04267 14.667 6.37467 14.6657 5.87133 14.5983C5.382 14.5323 5.12333 14.4117 4.93867 14.2277C4.754 14.043 4.634 13.7843 4.568 13.2943C4.50067 12.791 4.49933 12.1237 4.49933 11.167V7.83367C4.49933 6.87701 4.50067 6.20901 4.568 5.70567C4.634 5.21634 4.75467 4.95767 4.93867 4.77301Z" fill="#101828"/>
</svg>
