<svg width="24" height="25" viewBox="0 0 24 25" fill="none" xmlns="http://www.w3.org/2000/svg">
<path d="M12.0049 2.5C13.5962 2.5 15.1223 3.13214 16.2475 4.25736C17.3727 5.38258 18.0049 6.9087 18.0049 8.5V9.5H22.0049V11.5H20.8379L20.0809 20.583C20.0601 20.8329 19.9461 21.0658 19.7617 21.2357C19.5772 21.4055 19.3356 21.4999 19.0849 21.5H4.92488C4.67396 21.5001 4.43216 21.4059 4.24747 21.236C4.06279 21.0662 3.94871 20.8331 3.92788 20.583L3.17088 11.5H2.00488V9.5H6.00488V8.5C6.00488 6.9087 6.63702 5.38258 7.76224 4.25736C8.88746 3.13214 10.4136 2.5 12.0049 2.5ZM18.8309 11.5H5.17788L5.84488 19.5H18.1639L18.8309 11.5ZM13.0049 13.5V17.5H11.0049V13.5H13.0049ZM9.00488 13.5V17.5H7.00488V13.5H9.00488ZM17.0049 13.5V17.5H15.0049V13.5H17.0049ZM12.0049 4.5C10.9786 4.5 9.99165 4.89444 9.24807 5.60172C8.50449 6.30901 8.06119 7.27504 8.00988 8.3L8.00488 8.5V9.5H16.0049V8.5C16.0049 7.47376 15.6104 6.48677 14.9032 5.74319C14.1959 4.9996 13.2298 4.55631 12.2049 4.505L12.0049 4.5Z" fill="#DDA840"/>
</svg>
