<svg width="101" height="20" viewBox="0 0 101 20" fill="none" xmlns="http://www.w3.org/2000/svg">
<path d="M7.87484 14.0212L10.4998 12.4378L13.1248 14.042L12.4373 11.042L14.7498 9.04199L11.7082 8.77116L10.4998 5.93783L9.2915 8.75033L6.24984 9.02116L8.56234 11.042L7.87484 14.0212ZM5.354 17.5003L6.70817 11.6462L2.1665 7.70866L8.1665 7.18783L10.4998 1.66699L12.8332 7.18783L18.8332 7.70866L14.2915 11.6462L15.6457 17.5003L10.4998 14.3962L5.354 17.5003Z" fill="#101828"/>
<path d="M27.8748 14.0212L30.4998 12.4378L33.1248 14.042L32.4373 11.042L34.7498 9.04199L31.7082 8.77116L30.4998 5.93783L29.2915 8.75033L26.2498 9.02116L28.5623 11.042L27.8748 14.0212ZM25.354 17.5003L26.7082 11.6462L22.1665 7.70866L28.1665 7.18783L30.4998 1.66699L32.8332 7.18783L38.8332 7.70866L34.2915 11.6462L35.6457 17.5003L30.4998 14.3962L25.354 17.5003Z" fill="#101828"/>
<path d="M47.8748 14.0212L50.4998 12.4378L53.1248 14.042L52.4373 11.042L54.7498 9.04199L51.7082 8.77116L50.4998 5.93783L49.2915 8.75033L46.2498 9.02116L48.5623 11.042L47.8748 14.0212ZM45.354 17.5003L46.7082 11.6462L42.1665 7.70866L48.1665 7.18783L50.4998 1.66699L52.8332 7.18783L58.8332 7.70866L54.2915 11.6462L55.6457 17.5003L50.4998 14.3962L45.354 17.5003Z" fill="#101828"/>
<path d="M67.8748 14.0212L70.4998 12.4378L73.1248 14.042L72.4373 11.042L74.7498 9.04199L71.7082 8.77116L70.4998 5.93783L69.2915 8.75033L66.2498 9.02116L68.5623 11.042L67.8748 14.0212ZM65.354 17.5003L66.7082 11.6462L62.1665 7.70866L68.1665 7.18783L70.4998 1.66699L72.8332 7.18783L78.8332 7.70866L74.2915 11.6462L75.6457 17.5003L70.4998 14.3962L65.354 17.5003Z" fill="#101828"/>
<path d="M87.8748 14.0212L90.4998 12.4378L93.1248 14.042L92.4373 11.042L94.7498 9.04199L91.7082 8.77116L90.4998 5.93783L89.2915 8.75033L86.2498 9.02116L88.5623 11.042L87.8748 14.0212ZM85.354 17.5003L86.7082 11.6462L82.1665 7.70866L88.1665 7.18783L90.4998 1.66699L92.8332 7.18783L98.8332 7.70866L94.2915 11.6462L95.6457 17.5003L90.4998 14.3962L85.354 17.5003Z" fill="#101828"/>
</svg>
