<svg width="21" height="20" viewBox="0 0 21 20" fill="none" xmlns="http://www.w3.org/2000/svg">
<path fill-rule="evenodd" clip-rule="evenodd" d="M10.4998 1.04199C9.45002 1.04199 8.4432 1.45903 7.70087 2.20136C6.95854 2.94369 6.5415 3.95051 6.5415 5.00033C6.5415 6.05014 6.95854 7.05696 7.70087 7.79929C8.4432 8.54162 9.45002 8.95866 10.4998 8.95866C11.5497 8.95866 12.5565 8.54162 13.2988 7.79929C14.0411 7.05696 14.4582 6.05014 14.4582 5.00033C14.4582 3.95051 14.0411 2.94369 13.2988 2.20136C12.5565 1.45903 11.5497 1.04199 10.4998 1.04199ZM7.7915 5.00033C7.7915 4.28203 8.07685 3.59316 8.58476 3.08524C9.09267 2.57733 9.78154 2.29199 10.4998 2.29199C11.2181 2.29199 11.907 2.57733 12.4149 3.08524C12.9228 3.59316 13.2082 4.28203 13.2082 5.00033C13.2082 5.71862 12.9228 6.4075 12.4149 6.91541C11.907 7.42332 11.2181 7.70866 10.4998 7.70866C9.78154 7.70866 9.09267 7.42332 8.58476 6.91541C8.07685 6.4075 7.7915 5.71862 7.7915 5.00033ZM10.4998 10.2087C8.79984 10.2087 7.2315 10.6003 6.06484 11.267C4.9165 11.9237 4.0415 12.9253 4.0415 14.167C4.0415 15.4087 4.9165 16.4103 6.06484 17.067C7.2315 17.7337 8.80067 18.1253 10.4998 18.1253C12.1998 18.1253 13.7682 17.7337 14.9348 17.067C16.0832 16.4103 16.9582 15.4087 16.9582 14.167C16.9582 12.9253 16.0832 11.9237 14.9348 11.267C13.7682 10.6003 12.199 10.2087 10.4998 10.2087ZM5.2915 14.167C5.2915 13.567 5.72234 12.9028 6.68484 12.3528C7.62984 11.8128 8.97734 11.4587 10.4998 11.4587C12.0223 11.4587 13.3698 11.8128 14.3148 12.3528C15.2773 12.9028 15.7082 13.5678 15.7082 14.167C15.7082 14.767 15.2773 15.4312 14.3148 15.9812C13.3698 16.5212 12.0223 16.8753 10.4998 16.8753C8.97734 16.8753 7.62984 16.5212 6.68484 15.9812C5.72234 15.4312 5.2915 14.767 5.2915 14.167Z" fill="#101828"/>
</svg>
